# MagicaVoxel @ Ephtracy

# group
o 

# material
mtllib fence_t.mtl
usemtl palette

# normals
vn -1 0 0
vn 1 0 0
vn 0 0 1
vn 0 0 -1
vn 0 -1 0
vn 0 1 0

# texcoords
vt 0.169922 0.5
vt 0.173828 0.5

# verts
v -0.2 0.1 0
v -0.2 0.1 -0.1
v -0.2 0.2 0
v -0.2 0.2 -0.1
v -0.2 0.3 0
v -0.2 0.3 -0.1
v -0.2 0.4 0
v -0.2 0.4 -0.1
v 0 0 0
v 0 0 -0.1
v 0 0.1 0.2
v 0 0.1 0
v 0 0.1 -0.1
v 0 0.2 0.2
v 0 0.2 0
v 0 0.2 -0.1
v 0 0.3 0.2
v 0 0.3 0
v 0 0.3 -0.1
v 0 0.4 0.2
v 0 0.4 0
v 0 0.4 -0.1
v 0 0.5 0
v 0 0.5 -0.1
v 0.1 0 0
v 0.1 0 -0.1
v 0.1 0.1 0.2
v 0.1 0.1 0
v 0.1 0.1 -0.1
v 0.1 0.2 0.2
v 0.1 0.2 0
v 0.1 0.2 -0.1
v 0.1 0.3 0.2
v 0.1 0.3 0
v 0.1 0.3 -0.1
v 0.1 0.4 0.2
v 0.1 0.4 0
v 0.1 0.4 -0.1
v 0.1 0.5 0
v 0.1 0.5 -0.1
v 0.3 0.1 0
v 0.3 0.1 -0.1
v 0.3 0.2 0
v 0.3 0.2 -0.1
v 0.3 0.3 0
v 0.3 0.3 -0.1
v 0.3 0.4 0
v 0.3 0.4 -0.1
v 0 0.1 0.2
v 0 0.2 0.2
v 0 0.3 0.2
v 0 0.4 0.2
v 0.1 0.1 0.2
v 0.1 0.2 0.2
v 0.1 0.3 0.2
v 0.1 0.4 0.2
v -0.2 0.1 0
v -0.2 0.2 0
v -0.2 0.3 0
v -0.2 0.4 0
v 0 0 0
v 0 0.1 0
v 0 0.2 0
v 0 0.3 0
v 0 0.4 0
v 0 0.5 0
v 0.1 0 0
v 0.1 0.1 0
v 0.1 0.2 0
v 0.1 0.3 0
v 0.1 0.4 0
v 0.1 0.5 0
v 0.3 0.1 0
v 0.3 0.2 0
v 0.3 0.3 0
v 0.3 0.4 0
v -0.2 0.1 -0.1
v -0.2 0.2 -0.1
v -0.2 0.3 -0.1
v -0.2 0.4 -0.1
v 0 0 -0.1
v 0 0.1 -0.1
v 0 0.2 -0.1
v 0 0.3 -0.1
v 0 0.4 -0.1
v 0 0.5 -0.1
v 0.1 0 -0.1
v 0.1 0.1 -0.1
v 0.1 0.2 -0.1
v 0.1 0.3 -0.1
v 0.1 0.4 -0.1
v 0.1 0.5 -0.1
v 0.3 0.1 -0.1
v 0.3 0.2 -0.1
v 0.3 0.3 -0.1
v 0.3 0.4 -0.1
v 0 0 0
v 0.1 0 0
v 0 0 -0.1
v 0.1 0 -0.1
v 0 0.1 0.2
v 0.1 0.1 0.2
v -0.2 0.1 0
v 0 0.1 0
v 0.1 0.1 0
v 0.3 0.1 0
v -0.2 0.1 -0.1
v 0 0.1 -0.1
v 0.1 0.1 -0.1
v 0.3 0.1 -0.1
v 0 0.3 0.2
v 0.1 0.3 0.2
v -0.2 0.3 0
v 0 0.3 0
v 0.1 0.3 0
v 0.3 0.3 0
v -0.2 0.3 -0.1
v 0 0.3 -0.1
v 0.1 0.3 -0.1
v 0.3 0.3 -0.1
v 0 0.2 0.2
v 0.1 0.2 0.2
v -0.2 0.2 0
v 0 0.2 0
v 0.1 0.2 0
v 0.3 0.2 0
v -0.2 0.2 -0.1
v 0 0.2 -0.1
v 0.1 0.2 -0.1
v 0.3 0.2 -0.1
v 0 0.4 0.2
v 0.1 0.4 0.2
v -0.2 0.4 0
v 0 0.4 0
v 0.1 0.4 0
v 0.3 0.4 0
v -0.2 0.4 -0.1
v 0 0.4 -0.1
v 0.1 0.4 -0.1
v 0.3 0.4 -0.1
v 0 0.5 0
v 0.1 0.5 0
v 0 0.5 -0.1
v 0.1 0.5 -0.1

# faces
f 3/1/1 2/1/1 1/1/1
f 4/1/1 2/1/1 3/1/1
f 7/1/1 6/1/1 5/1/1
f 8/1/1 6/1/1 7/1/1
f 12/2/1 10/2/1 9/2/1
f 13/2/1 10/2/1 12/2/1
f 14/1/1 12/1/1 11/1/1
f 15/1/1 12/1/1 14/1/1
f 18/2/1 16/2/1 15/2/1
f 19/2/1 16/2/1 18/2/1
f 20/1/1 18/1/1 17/1/1
f 21/1/1 18/1/1 20/1/1
f 23/2/1 22/2/1 21/2/1
f 24/2/1 22/2/1 23/2/1
f 25/2/2 26/2/2 28/2/2
f 28/2/2 26/2/2 29/2/2
f 27/1/2 28/1/2 30/1/2
f 30/1/2 28/1/2 31/1/2
f 31/2/2 32/2/2 34/2/2
f 34/2/2 32/2/2 35/2/2
f 33/1/2 34/1/2 36/1/2
f 36/1/2 34/1/2 37/1/2
f 37/2/2 38/2/2 39/2/2
f 39/2/2 38/2/2 40/2/2
f 41/1/2 42/1/2 43/1/2
f 43/1/2 42/1/2 44/1/2
f 45/1/2 46/1/2 47/1/2
f 47/1/2 46/1/2 48/1/2
f 53/1/3 50/1/3 49/1/3
f 54/1/3 50/1/3 53/1/3
f 55/1/3 52/1/3 51/1/3
f 56/1/3 52/1/3 55/1/3
f 62/1/3 58/1/3 57/1/3
f 63/1/3 58/1/3 62/1/3
f 64/1/3 60/1/3 59/1/3
f 65/1/3 60/1/3 64/1/3
f 67/2/3 62/2/3 61/2/3
f 68/2/3 62/2/3 67/2/3
f 69/2/3 64/2/3 63/2/3
f 70/2/3 64/2/3 69/2/3
f 71/2/3 66/2/3 65/2/3
f 72/2/3 66/2/3 71/2/3
f 73/1/3 69/1/3 68/1/3
f 74/1/3 69/1/3 73/1/3
f 75/1/3 71/1/3 70/1/3
f 76/1/3 71/1/3 75/1/3
f 77/1/4 78/1/4 82/1/4
f 82/1/4 78/1/4 83/1/4
f 79/1/4 80/1/4 84/1/4
f 84/1/4 80/1/4 85/1/4
f 82/2/4 83/2/4 87/2/4
f 85/2/4 86/2/4 87/2/4
f 84/2/4 85/2/4 87/2/4
f 83/2/4 84/2/4 87/2/4
f 81/2/4 82/2/4 87/2/4
f 87/2/4 86/2/4 88/2/4
f 88/2/4 86/2/4 89/2/4
f 89/2/4 86/2/4 90/2/4
f 90/2/4 86/2/4 91/2/4
f 91/2/4 86/2/4 92/2/4
f 88/1/4 89/1/4 93/1/4
f 93/1/4 89/1/4 94/1/4
f 90/1/4 91/1/4 95/1/4
f 95/1/4 91/1/4 96/1/4
f 99/2/5 98/2/5 97/2/5
f 100/2/5 98/2/5 99/2/5
f 104/1/5 102/1/5 101/1/5
f 105/1/5 102/1/5 104/1/5
f 107/1/5 104/1/5 103/1/5
f 108/1/5 104/1/5 107/1/5
f 109/1/5 106/1/5 105/1/5
f 110/1/5 106/1/5 109/1/5
f 114/1/5 112/1/5 111/1/5
f 115/1/5 112/1/5 114/1/5
f 117/1/5 114/1/5 113/1/5
f 118/1/5 114/1/5 117/1/5
f 119/1/5 116/1/5 115/1/5
f 120/1/5 116/1/5 119/1/5
f 121/1/6 122/1/6 124/1/6
f 124/1/6 122/1/6 125/1/6
f 123/1/6 124/1/6 127/1/6
f 127/1/6 124/1/6 128/1/6
f 125/1/6 126/1/6 129/1/6
f 129/1/6 126/1/6 130/1/6
f 131/1/6 132/1/6 134/1/6
f 134/1/6 132/1/6 135/1/6
f 133/1/6 134/1/6 137/1/6
f 137/1/6 134/1/6 138/1/6
f 135/1/6 136/1/6 139/1/6
f 139/1/6 136/1/6 140/1/6
f 141/2/6 142/2/6 143/2/6
f 143/2/6 142/2/6 144/2/6
