# MagicaVoxel @ Ephtracy

# group
o 

# material
mtllib grass.mtl
usemtl palette

# normals
vn -1 0 0
vn 1 0 0
vn 0 0 1
vn 0 0 -1
vn 0 -1 0
vn 0 1 0

# texcoords
vt 0.134766 0.5
vt 0.138672 0.5
vt 0.166016 0.5
vt 0.169922 0.5

# verts
v -0.2 0 0.2
v -0.2 0 -0.3
v -0.2 0.1 0.1
v -0.2 0.1 -0.2
v -0.2 0.4 0.2
v -0.2 0.4 0.1
v -0.2 0.4 -0.2
v -0.2 0.4 -0.3
v -0.2 0.5 0.2
v -0.2 0.5 -0.3
v 0.3 0 0.2
v 0.3 0 -0.3
v 0.3 0.1 0.1
v 0.3 0.1 -0.2
v 0.3 0.4 0.2
v 0.3 0.4 0.1
v 0.3 0.4 -0.2
v 0.3 0.4 -0.3
v 0.3 0.5 0.2
v 0.3 0.5 -0.3
v -0.2 0 0.2
v -0.2 0.4 0.2
v -0.2 0.5 0.2
v -0.1 0.1 0.2
v -0.1 0.4 0.2
v 0.2 0.1 0.2
v 0.2 0.4 0.2
v 0.3 0 0.2
v 0.3 0.4 0.2
v 0.3 0.5 0.2
v -0.2 0 -0.3
v -0.2 0.4 -0.3
v -0.2 0.5 -0.3
v -0.1 0.1 -0.3
v -0.1 0.4 -0.3
v 0.2 0.1 -0.3
v 0.2 0.4 -0.3
v 0.3 0 -0.3
v 0.3 0.4 -0.3
v 0.3 0.5 -0.3
v -0.2 0 0.2
v 0.3 0 0.2
v -0.2 0 -0.3
v 0.3 0 -0.3
v -0.2 0.5 0.2
v 0.3 0.5 0.2
v -0.1 0.5 0.1
v 0.2 0.5 0.1
v -0.1 0.5 -0.2
v 0.2 0.5 -0.2
v -0.2 0.5 -0.3
v 0.3 0.5 -0.3

# faces
f 3/3/1 2/3/1 1/3/1
f 4/3/1 2/3/1 3/3/1
f 5/3/1 3/3/1 1/3/1
f 6/4/1 4/4/1 3/4/1
f 6/3/1 3/3/1 5/3/1
f 7/3/1 2/3/1 4/3/1
f 7/4/1 4/4/1 6/4/1
f 8/3/1 2/3/1 7/3/1
f 9/1/1 6/1/1 5/1/1
f 9/1/1 7/1/1 6/1/1
f 9/1/1 8/1/1 7/1/1
f 10/1/1 8/1/1 9/1/1
f 11/3/2 12/3/2 13/3/2
f 13/3/2 12/3/2 14/3/2
f 11/3/2 13/3/2 15/3/2
f 13/4/2 14/4/2 16/4/2
f 15/3/2 13/3/2 16/3/2
f 14/3/2 12/3/2 17/3/2
f 16/4/2 14/4/2 17/4/2
f 17/3/2 12/3/2 18/3/2
f 15/1/2 16/1/2 19/1/2
f 16/1/2 17/1/2 19/1/2
f 17/1/2 18/1/2 19/1/2
f 19/1/2 18/1/2 20/1/2
f 24/3/3 22/3/3 21/3/3
f 25/1/3 23/1/3 22/1/3
f 25/3/3 22/3/3 24/3/3
f 26/3/3 24/3/3 21/3/3
f 26/4/3 25/4/3 24/4/3
f 27/1/3 23/1/3 25/1/3
f 27/4/3 25/4/3 26/4/3
f 28/3/3 26/3/3 21/3/3
f 28/3/3 27/3/3 26/3/3
f 29/1/3 23/1/3 27/1/3
f 29/3/3 27/3/3 28/3/3
f 30/1/3 23/1/3 29/1/3
f 31/3/4 32/3/4 34/3/4
f 32/1/4 33/1/4 35/1/4
f 34/3/4 32/3/4 35/3/4
f 31/3/4 34/3/4 36/3/4
f 34/4/4 35/4/4 36/4/4
f 35/1/4 33/1/4 37/1/4
f 36/4/4 35/4/4 37/4/4
f 31/3/4 36/3/4 38/3/4
f 36/3/4 37/3/4 38/3/4
f 37/1/4 33/1/4 39/1/4
f 38/3/4 37/3/4 39/3/4
f 39/1/4 33/1/4 40/1/4
f 43/3/5 42/3/5 41/3/5
f 44/3/5 42/3/5 43/3/5
f 45/1/6 46/1/6 47/1/6
f 47/1/6 46/1/6 48/1/6
f 45/1/6 47/1/6 49/1/6
f 47/2/6 48/2/6 49/2/6
f 48/1/6 46/1/6 50/1/6
f 49/2/6 48/2/6 50/2/6
f 45/1/6 49/1/6 51/1/6
f 49/1/6 50/1/6 51/1/6
f 50/1/6 46/1/6 52/1/6
f 51/1/6 50/1/6 52/1/6
